<svg xmlns="http://www.w3.org/2000/svg" viewBox="0 0 64 64">
  <defs>
    <linearGradient id="bg" x1="0" y1="0" x2="1" y2="1">
      <stop offset="0" stop-color="#f04438"/>
      <stop offset="1" stop-color="#d92d20"/>
    </linearGradient>
  </defs>
  <rect width="64" height="64" rx="14" fill="url(#bg)"/>
  <path d="M19 12h17l9 9v29a2 2 0 0 1-2 2H19a2 2 0 0 1-2-2V14a2 2 0 0 1 2-2z" fill="#ffffff"/>
  <path d="M36 12l9 9h-8a1 1 0 0 1-1-1v-8z" fill="#fecdca"/>
  <rect x="23" y="30" width="18" height="3.5" rx="1.75" fill="#f04438"/>
  <rect x="23" y="37" width="18" height="3.5" rx="1.75" fill="#f04438"/>
  <rect x="23" y="44" width="11" height="3.5" rx="1.75" fill="#f04438"/>
</svg>
